<svg viewBox="0 0 240 170" xmlns="http://www.w3.org/2000/svg" aria-hidden="true" fill="none" stroke-width="1">
<path d="M83.6 67.4L85.3 66.4L86.9 65.3L89.1 64.1L89.8 63.1L91.6 63.0L92.0 62.2L94.6 61.6L97.4 61.4L97.8 61.0L100.4 61.4L102.5 61.7L105.0 63.0L106.8 64.0L108.9 66.2L110.1 68.1L111.1 70.4L111.6 72.2L112.4 74.4L112.9 76.1L113.7 78.6L114.1 80.7L114.3 82.9L113.9 84.7L113.4 86.8L111.7 89.1L109.5 90.8L106.8 91.9L103.8 92.5L100.1 92.4L98.5 91.8L97.1 91.8L95.6 91.1L94.2 90.8L92.9 90.0L90.1 88.8L87.6 87.5L86.3 86.5L84.2 85.5L82.8 84.3L80.4 82.9L79.2 81.5L78.2 81.3L77.2 79.7L76.1 77.6L76.3 75.9L76.3 73.6L77.6 72.1L78.4 70.6L79.9 69.6L81.8 68.5Z" fill="var(--bg)" stroke="var(--muted)" stroke-width="1.0" stroke-linejoin="round"/>
<path d="M95.1 68.8L91.5 70.1L94.4 96.7L97.6 94.6Z" fill="var(--bg)" stroke="var(--accent)" stroke-width="1" stroke-linejoin="round"/>
<path d="M125.8 82.6L128.3 81.0L131.0 79.4L134.4 77.6L137.0 76.5L138.5 76.0L140.7 75.2L145.1 74.3L149.7 74.1Z" fill="var(--bg)" stroke="var(--muted)" stroke-width="1.0" stroke-linejoin="round"/>
<path d="M147.4 74.6L145.0 75.6L148.0 76.7L149.4 76.9Z" fill="var(--bg)" stroke="var(--muted)" stroke-width="1.0" stroke-linejoin="round"/>
<path d="M146.7 92.9L143.9 95.2L145.8 98.5L143.0 100.1L146.6 101.1Z" fill="var(--bg)" stroke="var(--muted)" stroke-width="1.0" stroke-linejoin="round"/>
<path d="M123.1 84.3L120.4 86.1L118.5 87.7L116.7 89.7L115.2 92.3L114.6 95.5L115.0 98.6L116.5 101.6L118.9 104.5L119.3 104.3L122.0 106.9L125.5 109.0L129.0 111.5L131.8 112.9L134.9 115.1L138.8 117.1L143.1 119.0L142.4 119.3L144.2 120.1Z" fill="var(--bg)" stroke="var(--muted)" stroke-width="1.0" stroke-linejoin="round"/>
<path d="M145.5 83.1L146.6 80.6L148.7 81.5Z" fill="var(--bg)" stroke="var(--muted)" stroke-width="1.0" stroke-linejoin="round"/>
<path d="M149.5 75.5L148.6 76.8L147.6 78.5L149.1 78.3Z" fill="var(--bg)" stroke="var(--muted)" stroke-width="1.0" stroke-linejoin="round"/>
<path d="M141.3 113.7L144.7 116.8L140.3 115.4Z" fill="var(--bg)" stroke="var(--muted)" stroke-width="1.0" stroke-linejoin="round"/>
<path d="M145.5 108.2L143.7 105.5L146.0 104.1Z" fill="var(--bg)" stroke="var(--muted)" stroke-width="1.0" stroke-linejoin="round"/>
<path d="M141.9 118.9L144.1 119.3L144.3 119.3Z" fill="var(--bg)" stroke="var(--muted)" stroke-width="1.0" stroke-linejoin="round"/>
<path d="M145.3 110.2L145.1 111.3L145.1 111.9L145.0 112.6L144.9 113.7L144.8 114.7L144.7 115.5L144.6 116.4L144.5 117.0L144.5 117.4L144.4 118.4L144.3 119.3L144.3 119.4L144.3 119.4L144.2 120.0L144.2 120.1L144.2 120.1L144.3 119.7L144.3 119.5L144.4 118.5L144.5 118.3L144.7 116.8L144.9 114.9L144.9 114.5L145.2 112.7L145.3 112.0L145.5 110.4L145.6 109.2L145.8 107.9L146.0 105.6L146.1 105.5L146.1 105.3L146.3 103.3L146.5 101.7L146.6 101.1L146.7 100.2L146.9 98.8L147.0 97.6L147.2 96.1L147.4 94.3L147.5 93.2L147.7 92.2L147.9 90.3L148.2 87.3L148.2 87.3L148.2 87.3L148.6 84.4L148.8 82.6L148.9 81.6L149.0 80.5L149.2 79.0L149.3 77.8L149.4 76.9L149.5 76.1L149.6 75.6L149.6 75.3L149.7 74.7L149.7 74.1L149.7 74.1L149.7 74.1L149.7 73.9L149.7 73.9L149.7 74.0L149.7 74.1L149.6 74.3L149.6 74.7L149.6 74.8L149.5 75.5L149.3 76.7L149.3 77.0L149.1 78.3L149.0 78.9L148.8 80.3L148.7 81.5L148.5 82.9L148.2 85.6L148.1 85.9L148.1 86.1L147.8 88.8L147.5 91.1L147.4 92.1L147.2 93.6L147.0 95.5L146.7 97.4L146.5 99.5L146.2 101.7L146.1 103.1L146.0 104.1L145.8 105.9L145.5 108.2L145.5 108.2L145.5 108.2Z" fill="var(--bg)" stroke="var(--accent)" stroke-width="1.0" stroke-linejoin="round"/>
<path d="M180.9 76.3L177.2 76.4L177.0 76.4Z" fill="var(--bg)" stroke="var(--muted)" stroke-width="1.0" stroke-linejoin="round"/>
<path d="M171.6 90.0L174.3 87.3L172.6 85.1Z" fill="var(--bg)" stroke="var(--muted)" stroke-width="1.0" stroke-linejoin="round"/>
<path d="M184.3 76.9L190.5 77.9L193.9 79.9L199.9 82.1L202.5 85.8L207.6 89.6L208.1 93.4L211.6 97.0L211.5 100.5L215.1 104.3L215.2 108.1L218.6 112.6L217.1 116.0L219.0 120.1L215.6 122.9L210.9 126.3L206.6 128.9L200.9 130.6L194.8 131.0L187.3 130.3L181.1 127.9L181.1 128.9L175.3 126.3L175.3 126.9L172.2 125.6Z" fill="var(--bg)" stroke="var(--muted)" stroke-width="1.0" stroke-linejoin="round"/>
<path d="M172.2 112.5L170.0 109.3L169.8 109.1Z" fill="var(--bg)" stroke="var(--muted)" stroke-width="1.0" stroke-linejoin="round"/>
<path d="M181.1 76.6L181.1 77.3L180.1 77.3Z" fill="var(--bg)" stroke="var(--muted)" stroke-width="1.0" stroke-linejoin="round"/>
<path d="M171.7 115.1L171.2 117.5L169.9 116.3Z" fill="var(--bg)" stroke="var(--muted)" stroke-width="1.0" stroke-linejoin="round"/>
<path d="M170.5 121.7L170.8 119.7L170.1 119.5Z" fill="var(--bg)" stroke="var(--muted)" stroke-width="1.0" stroke-linejoin="round"/>
<path d="M187.2 93.8L190.6 98.3L185.2 101.0L183.1 100.5Z" fill="var(--bg)" stroke="var(--muted)" stroke-width="1.0" stroke-linejoin="round"/>
<path d="M178.8 117.9L181.1 120.5L177.5 121.8L180.4 124.5L175.3 122.9Z" fill="var(--bg)" stroke="var(--muted)" stroke-width="1.0" stroke-linejoin="round"/>
<path d="M181.0 78.3L187.6 79.2L181.7 79.7Z" fill="var(--bg)" stroke="var(--muted)" stroke-width="1.0" stroke-linejoin="round"/>
<path d="M178.5 115.9L178.0 117.1L177.7 117.7L177.3 118.4L176.8 119.5L176.4 120.5L176.0 121.4L175.6 122.2L175.3 122.9L175.1 123.3L174.5 124.2L173.9 125.1L173.8 125.2L173.7 125.2L173.0 125.7L172.5 125.7L172.2 125.6L171.7 125.1L171.5 124.8L171.0 123.7L170.9 123.4L170.5 121.7L170.1 119.5L170.1 119.1L169.9 117.2L169.9 116.3L169.8 114.6L169.8 113.4L169.8 112.0L169.8 109.5L169.8 109.3L169.8 109.1L169.9 107.0L170.0 105.3L170.1 104.6L170.1 103.6L170.2 102.2L170.3 100.9L170.5 99.3L170.6 97.4L170.7 96.2L170.9 95.1L171.1 93.2L171.6 90.0L171.6 90.0L171.6 90.0L172.1 86.9L172.6 85.1L172.9 84.0L173.2 82.9L173.7 81.4L174.2 80.2L174.6 79.2L175.1 78.3L175.4 77.8L175.7 77.6L176.2 77.0L177.0 76.4L177.0 76.4L177.1 76.4L177.9 76.3L178.3 76.3L178.7 76.4L179.2 76.6L179.5 76.8L180.1 77.3L180.3 77.4L181.0 78.3L181.7 79.7L181.8 79.9L182.3 81.5L182.5 82.2L182.9 83.8L183.1 85.0L183.3 86.6L183.6 89.6L183.6 89.9L183.6 90.1L183.6 93.2L183.6 95.7L183.5 96.8L183.3 98.3L183.1 100.5L182.8 102.5L182.4 104.8L181.8 107.1L181.4 108.5L181.1 109.7L180.4 111.5L179.4 113.9L179.4 113.9L179.4 113.9Z" fill="var(--bg)" stroke="var(--accent)" stroke-width="1.0" stroke-linejoin="round"/>
<path d="M90.1 93.0L175.3 139.1" stroke="var(--rule)" stroke-width="1" stroke-dasharray="2 4"/><path d="M169.3 136.1L175.3 139.1L169.3 142.1" stroke="var(--rule)" stroke-width="1" stroke-linecap="round" stroke-linejoin="round"/>
</svg>
